<svg xmlns="http://www.w3.org/2000/svg" viewBox="0 0 1500 208">
  <rect width="1500" height="208" fill="#0d1117"/>
  <rect x="30" y="40" width="14" height="14" fill="#e6edf3"/>
  <rect x="46" y="40" width="14" height="14" fill="#e6edf3"/>
  <rect x="126" y="40" width="14" height="14" fill="#e6edf3"/>
  <rect x="142" y="40" width="14" height="14" fill="#e6edf3"/>
  <rect x="30" y="56" width="14" height="14" fill="#e6edf3"/>
  <rect x="46" y="56" width="14" height="14" fill="#e6edf3"/>
  <rect x="126" y="56" width="14" height="14" fill="#e6edf3"/>
  <rect x="142" y="56" width="14" height="14" fill="#e6edf3"/>
  <rect x="30" y="72" width="14" height="14" fill="#d0d7de"/>
  <rect x="46" y="72" width="14" height="14" fill="#d0d7de"/>
  <rect x="126" y="72" width="14" height="14" fill="#d0d7de"/>
  <rect x="142" y="72" width="14" height="14" fill="#d0d7de"/>
  <rect x="30" y="88" width="14" height="14" fill="#8b949e"/>
  <rect x="46" y="88" width="14" height="14" fill="#8b949e"/>
  <rect x="78" y="88" width="14" height="14" fill="#8b949e"/>
  <rect x="94" y="88" width="14" height="14" fill="#8b949e"/>
  <rect x="126" y="88" width="14" height="14" fill="#8b949e"/>
  <rect x="142" y="88" width="14" height="14" fill="#8b949e"/>
  <rect x="30" y="104" width="14" height="14" fill="#8b949e"/>
  <rect x="46" y="104" width="14" height="14" fill="#8b949e"/>
  <rect x="78" y="104" width="14" height="14" fill="#8b949e"/>
  <rect x="94" y="104" width="14" height="14" fill="#8b949e"/>
  <rect x="126" y="104" width="14" height="14" fill="#8b949e"/>
  <rect x="142" y="104" width="14" height="14" fill="#8b949e"/>
  <rect x="30" y="120" width="14" height="14" fill="#636e7b"/>
  <rect x="46" y="120" width="14" height="14" fill="#636e7b"/>
  <rect x="62" y="120" width="14" height="14" fill="#636e7b"/>
  <rect x="78" y="120" width="14" height="14" fill="#636e7b"/>
  <rect x="94" y="120" width="14" height="14" fill="#636e7b"/>
  <rect x="110" y="120" width="14" height="14" fill="#636e7b"/>
  <rect x="126" y="120" width="14" height="14" fill="#636e7b"/>
  <rect x="142" y="120" width="14" height="14" fill="#636e7b"/>
  <rect x="46" y="136" width="14" height="14" fill="#545d68"/>
  <rect x="62" y="136" width="14" height="14" fill="#545d68"/>
  <rect x="110" y="136" width="14" height="14" fill="#545d68"/>
  <rect x="126" y="136" width="14" height="14" fill="#545d68"/>
  <rect x="46" y="152" width="14" height="14" fill="#444c56"/>
  <rect x="62" y="152" width="14" height="14" fill="#444c56"/>
  <rect x="110" y="152" width="14" height="14" fill="#444c56"/>
  <rect x="126" y="152" width="14" height="14" fill="#444c56"/>
  <rect x="190" y="40" width="14" height="14" fill="#e6edf3"/>
  <rect x="206" y="40" width="14" height="14" fill="#e6edf3"/>
  <rect x="222" y="40" width="14" height="14" fill="#e6edf3"/>
  <rect x="238" y="40" width="14" height="14" fill="#e6edf3"/>
  <rect x="206" y="56" width="14" height="14" fill="#e6edf3"/>
  <rect x="222" y="56" width="14" height="14" fill="#e6edf3"/>
  <rect x="206" y="72" width="14" height="14" fill="#d0d7de"/>
  <rect x="222" y="72" width="14" height="14" fill="#d0d7de"/>
  <rect x="206" y="88" width="14" height="14" fill="#8b949e"/>
  <rect x="222" y="88" width="14" height="14" fill="#8b949e"/>
  <rect x="206" y="104" width="14" height="14" fill="#8b949e"/>
  <rect x="222" y="104" width="14" height="14" fill="#8b949e"/>
  <rect x="206" y="120" width="14" height="14" fill="#636e7b"/>
  <rect x="222" y="120" width="14" height="14" fill="#636e7b"/>
  <rect x="206" y="136" width="14" height="14" fill="#545d68"/>
  <rect x="222" y="136" width="14" height="14" fill="#545d68"/>
  <rect x="190" y="152" width="14" height="14" fill="#444c56"/>
  <rect x="206" y="152" width="14" height="14" fill="#444c56"/>
  <rect x="222" y="152" width="14" height="14" fill="#444c56"/>
  <rect x="238" y="152" width="14" height="14" fill="#444c56"/>
  <rect x="286" y="40" width="14" height="14" fill="#e6edf3"/>
  <rect x="302" y="40" width="14" height="14" fill="#e6edf3"/>
  <rect x="318" y="40" width="14" height="14" fill="#e6edf3"/>
  <rect x="334" y="40" width="14" height="14" fill="#e6edf3"/>
  <rect x="350" y="40" width="14" height="14" fill="#e6edf3"/>
  <rect x="366" y="40" width="14" height="14" fill="#e6edf3"/>
  <rect x="382" y="40" width="14" height="14" fill="#e6edf3"/>
  <rect x="398" y="40" width="14" height="14" fill="#e6edf3"/>
  <rect x="286" y="56" width="14" height="14" fill="#e6edf3"/>
  <rect x="302" y="56" width="14" height="14" fill="#e6edf3"/>
  <rect x="318" y="56" width="14" height="14" fill="#e6edf3"/>
  <rect x="334" y="56" width="14" height="14" fill="#e6edf3"/>
  <rect x="350" y="56" width="14" height="14" fill="#e6edf3"/>
  <rect x="366" y="56" width="14" height="14" fill="#e6edf3"/>
  <rect x="382" y="56" width="14" height="14" fill="#e6edf3"/>
  <rect x="398" y="56" width="14" height="14" fill="#e6edf3"/>
  <rect x="334" y="72" width="14" height="14" fill="#d0d7de"/>
  <rect x="350" y="72" width="14" height="14" fill="#d0d7de"/>
  <rect x="334" y="88" width="14" height="14" fill="#8b949e"/>
  <rect x="350" y="88" width="14" height="14" fill="#8b949e"/>
  <rect x="334" y="104" width="14" height="14" fill="#8b949e"/>
  <rect x="350" y="104" width="14" height="14" fill="#8b949e"/>
  <rect x="334" y="120" width="14" height="14" fill="#636e7b"/>
  <rect x="350" y="120" width="14" height="14" fill="#636e7b"/>
  <rect x="334" y="136" width="14" height="14" fill="#545d68"/>
  <rect x="350" y="136" width="14" height="14" fill="#545d68"/>
  <rect x="334" y="152" width="14" height="14" fill="#444c56"/>
  <rect x="350" y="152" width="14" height="14" fill="#444c56"/>
  <rect x="462" y="40" width="14" height="14" fill="#e6edf3"/>
  <rect x="478" y="40" width="14" height="14" fill="#e6edf3"/>
  <rect x="494" y="40" width="14" height="14" fill="#e6edf3"/>
  <rect x="510" y="40" width="14" height="14" fill="#e6edf3"/>
  <rect x="526" y="40" width="14" height="14" fill="#e6edf3"/>
  <rect x="542" y="40" width="14" height="14" fill="#e6edf3"/>
  <rect x="446" y="56" width="14" height="14" fill="#e6edf3"/>
  <rect x="462" y="56" width="14" height="14" fill="#e6edf3"/>
  <rect x="478" y="56" width="14" height="14" fill="#e6edf3"/>
  <rect x="494" y="56" width="14" height="14" fill="#e6edf3"/>
  <rect x="510" y="56" width="14" height="14" fill="#e6edf3"/>
  <rect x="526" y="56" width="14" height="14" fill="#e6edf3"/>
  <rect x="542" y="56" width="14" height="14" fill="#e6edf3"/>
  <rect x="558" y="56" width="14" height="14" fill="#e6edf3"/>
  <rect x="446" y="72" width="14" height="14" fill="#d0d7de"/>
  <rect x="462" y="72" width="14" height="14" fill="#d0d7de"/>
  <rect x="446" y="88" width="14" height="14" fill="#8b949e"/>
  <rect x="462" y="88" width="14" height="14" fill="#8b949e"/>
  <rect x="446" y="104" width="14" height="14" fill="#8b949e"/>
  <rect x="462" y="104" width="14" height="14" fill="#8b949e"/>
  <rect x="446" y="120" width="14" height="14" fill="#636e7b"/>
  <rect x="462" y="120" width="14" height="14" fill="#636e7b"/>
  <rect x="446" y="136" width="14" height="14" fill="#545d68"/>
  <rect x="462" y="136" width="14" height="14" fill="#545d68"/>
  <rect x="478" y="136" width="14" height="14" fill="#545d68"/>
  <rect x="494" y="136" width="14" height="14" fill="#545d68"/>
  <rect x="510" y="136" width="14" height="14" fill="#545d68"/>
  <rect x="526" y="136" width="14" height="14" fill="#545d68"/>
  <rect x="542" y="136" width="14" height="14" fill="#545d68"/>
  <rect x="558" y="136" width="14" height="14" fill="#545d68"/>
  <rect x="462" y="152" width="14" height="14" fill="#444c56"/>
  <rect x="478" y="152" width="14" height="14" fill="#444c56"/>
  <rect x="494" y="152" width="14" height="14" fill="#444c56"/>
  <rect x="510" y="152" width="14" height="14" fill="#444c56"/>
  <rect x="526" y="152" width="14" height="14" fill="#444c56"/>
  <rect x="542" y="152" width="14" height="14" fill="#444c56"/>
  <rect x="606" y="40" width="14" height="14" fill="#e6edf3"/>
  <rect x="622" y="40" width="14" height="14" fill="#e6edf3"/>
  <rect x="702" y="40" width="14" height="14" fill="#e6edf3"/>
  <rect x="718" y="40" width="14" height="14" fill="#e6edf3"/>
  <rect x="606" y="56" width="14" height="14" fill="#e6edf3"/>
  <rect x="622" y="56" width="14" height="14" fill="#e6edf3"/>
  <rect x="702" y="56" width="14" height="14" fill="#e6edf3"/>
  <rect x="718" y="56" width="14" height="14" fill="#e6edf3"/>
  <rect x="606" y="72" width="14" height="14" fill="#d0d7de"/>
  <rect x="622" y="72" width="14" height="14" fill="#d0d7de"/>
  <rect x="702" y="72" width="14" height="14" fill="#d0d7de"/>
  <rect x="718" y="72" width="14" height="14" fill="#d0d7de"/>
  <rect x="606" y="88" width="14" height="14" fill="#8b949e"/>
  <rect x="622" y="88" width="14" height="14" fill="#8b949e"/>
  <rect x="638" y="88" width="14" height="14" fill="#8b949e"/>
  <rect x="654" y="88" width="14" height="14" fill="#8b949e"/>
  <rect x="670" y="88" width="14" height="14" fill="#8b949e"/>
  <rect x="686" y="88" width="14" height="14" fill="#8b949e"/>
  <rect x="702" y="88" width="14" height="14" fill="#8b949e"/>
  <rect x="718" y="88" width="14" height="14" fill="#8b949e"/>
  <rect x="606" y="104" width="14" height="14" fill="#8b949e"/>
  <rect x="622" y="104" width="14" height="14" fill="#8b949e"/>
  <rect x="638" y="104" width="14" height="14" fill="#8b949e"/>
  <rect x="654" y="104" width="14" height="14" fill="#8b949e"/>
  <rect x="670" y="104" width="14" height="14" fill="#8b949e"/>
  <rect x="686" y="104" width="14" height="14" fill="#8b949e"/>
  <rect x="702" y="104" width="14" height="14" fill="#8b949e"/>
  <rect x="718" y="104" width="14" height="14" fill="#8b949e"/>
  <rect x="606" y="120" width="14" height="14" fill="#636e7b"/>
  <rect x="622" y="120" width="14" height="14" fill="#636e7b"/>
  <rect x="702" y="120" width="14" height="14" fill="#636e7b"/>
  <rect x="718" y="120" width="14" height="14" fill="#636e7b"/>
  <rect x="606" y="136" width="14" height="14" fill="#545d68"/>
  <rect x="622" y="136" width="14" height="14" fill="#545d68"/>
  <rect x="702" y="136" width="14" height="14" fill="#545d68"/>
  <rect x="718" y="136" width="14" height="14" fill="#545d68"/>
  <rect x="606" y="152" width="14" height="14" fill="#444c56"/>
  <rect x="622" y="152" width="14" height="14" fill="#444c56"/>
  <rect x="702" y="152" width="14" height="14" fill="#444c56"/>
  <rect x="718" y="152" width="14" height="14" fill="#444c56"/>
  <rect x="782" y="40" width="14" height="14" fill="#e6edf3"/>
  <rect x="798" y="40" width="14" height="14" fill="#e6edf3"/>
  <rect x="814" y="40" width="14" height="14" fill="#e6edf3"/>
  <rect x="830" y="40" width="14" height="14" fill="#e6edf3"/>
  <rect x="846" y="40" width="14" height="14" fill="#e6edf3"/>
  <rect x="862" y="40" width="14" height="14" fill="#e6edf3"/>
  <rect x="766" y="56" width="14" height="14" fill="#e6edf3"/>
  <rect x="782" y="56" width="14" height="14" fill="#e6edf3"/>
  <rect x="798" y="56" width="14" height="14" fill="#e6edf3"/>
  <rect x="814" y="56" width="14" height="14" fill="#e6edf3"/>
  <rect x="830" y="56" width="14" height="14" fill="#e6edf3"/>
  <rect x="846" y="56" width="14" height="14" fill="#e6edf3"/>
  <rect x="862" y="56" width="14" height="14" fill="#e6edf3"/>
  <rect x="878" y="56" width="14" height="14" fill="#e6edf3"/>
  <rect x="766" y="72" width="14" height="14" fill="#d0d7de"/>
  <rect x="782" y="72" width="14" height="14" fill="#d0d7de"/>
  <rect x="862" y="72" width="14" height="14" fill="#d0d7de"/>
  <rect x="878" y="72" width="14" height="14" fill="#d0d7de"/>
  <rect x="766" y="88" width="14" height="14" fill="#8b949e"/>
  <rect x="782" y="88" width="14" height="14" fill="#8b949e"/>
  <rect x="862" y="88" width="14" height="14" fill="#8b949e"/>
  <rect x="878" y="88" width="14" height="14" fill="#8b949e"/>
  <rect x="766" y="104" width="14" height="14" fill="#8b949e"/>
  <rect x="782" y="104" width="14" height="14" fill="#8b949e"/>
  <rect x="798" y="104" width="14" height="14" fill="#8b949e"/>
  <rect x="814" y="104" width="14" height="14" fill="#8b949e"/>
  <rect x="830" y="104" width="14" height="14" fill="#8b949e"/>
  <rect x="846" y="104" width="14" height="14" fill="#8b949e"/>
  <rect x="862" y="104" width="14" height="14" fill="#8b949e"/>
  <rect x="878" y="104" width="14" height="14" fill="#8b949e"/>
  <rect x="766" y="120" width="14" height="14" fill="#636e7b"/>
  <rect x="782" y="120" width="14" height="14" fill="#636e7b"/>
  <rect x="798" y="120" width="14" height="14" fill="#636e7b"/>
  <rect x="814" y="120" width="14" height="14" fill="#636e7b"/>
  <rect x="830" y="120" width="14" height="14" fill="#636e7b"/>
  <rect x="846" y="120" width="14" height="14" fill="#636e7b"/>
  <rect x="862" y="120" width="14" height="14" fill="#636e7b"/>
  <rect x="878" y="120" width="14" height="14" fill="#636e7b"/>
  <rect x="766" y="136" width="14" height="14" fill="#545d68"/>
  <rect x="782" y="136" width="14" height="14" fill="#545d68"/>
  <rect x="862" y="136" width="14" height="14" fill="#545d68"/>
  <rect x="878" y="136" width="14" height="14" fill="#545d68"/>
  <rect x="766" y="152" width="14" height="14" fill="#444c56"/>
  <rect x="782" y="152" width="14" height="14" fill="#444c56"/>
  <rect x="862" y="152" width="14" height="14" fill="#444c56"/>
  <rect x="878" y="152" width="14" height="14" fill="#444c56"/>
  <rect x="926" y="40" width="14" height="14" fill="#e6edf3"/>
  <rect x="942" y="40" width="14" height="14" fill="#e6edf3"/>
  <rect x="1022" y="40" width="14" height="14" fill="#e6edf3"/>
  <rect x="1038" y="40" width="14" height="14" fill="#e6edf3"/>
  <rect x="926" y="56" width="14" height="14" fill="#e6edf3"/>
  <rect x="942" y="56" width="14" height="14" fill="#e6edf3"/>
  <rect x="1022" y="56" width="14" height="14" fill="#e6edf3"/>
  <rect x="1038" y="56" width="14" height="14" fill="#e6edf3"/>
  <rect x="926" y="72" width="14" height="14" fill="#d0d7de"/>
  <rect x="942" y="72" width="14" height="14" fill="#d0d7de"/>
  <rect x="1022" y="72" width="14" height="14" fill="#d0d7de"/>
  <rect x="1038" y="72" width="14" height="14" fill="#d0d7de"/>
  <rect x="926" y="88" width="14" height="14" fill="#8b949e"/>
  <rect x="942" y="88" width="14" height="14" fill="#8b949e"/>
  <rect x="1022" y="88" width="14" height="14" fill="#8b949e"/>
  <rect x="1038" y="88" width="14" height="14" fill="#8b949e"/>
  <rect x="926" y="104" width="14" height="14" fill="#8b949e"/>
  <rect x="942" y="104" width="14" height="14" fill="#8b949e"/>
  <rect x="1022" y="104" width="14" height="14" fill="#8b949e"/>
  <rect x="1038" y="104" width="14" height="14" fill="#8b949e"/>
  <rect x="926" y="120" width="14" height="14" fill="#636e7b"/>
  <rect x="942" y="120" width="14" height="14" fill="#636e7b"/>
  <rect x="1022" y="120" width="14" height="14" fill="#636e7b"/>
  <rect x="1038" y="120" width="14" height="14" fill="#636e7b"/>
  <rect x="926" y="136" width="14" height="14" fill="#545d68"/>
  <rect x="942" y="136" width="14" height="14" fill="#545d68"/>
  <rect x="958" y="136" width="14" height="14" fill="#545d68"/>
  <rect x="974" y="136" width="14" height="14" fill="#545d68"/>
  <rect x="990" y="136" width="14" height="14" fill="#545d68"/>
  <rect x="1006" y="136" width="14" height="14" fill="#545d68"/>
  <rect x="1022" y="136" width="14" height="14" fill="#545d68"/>
  <rect x="1038" y="136" width="14" height="14" fill="#545d68"/>
  <rect x="942" y="152" width="14" height="14" fill="#444c56"/>
  <rect x="958" y="152" width="14" height="14" fill="#444c56"/>
  <rect x="974" y="152" width="14" height="14" fill="#444c56"/>
  <rect x="990" y="152" width="14" height="14" fill="#444c56"/>
  <rect x="1006" y="152" width="14" height="14" fill="#444c56"/>
  <rect x="1022" y="152" width="14" height="14" fill="#444c56"/>
  <rect x="1086" y="40" width="14" height="14" fill="#e6edf3"/>
  <rect x="1102" y="40" width="14" height="14" fill="#e6edf3"/>
  <rect x="1118" y="40" width="14" height="14" fill="#e6edf3"/>
  <rect x="1134" y="40" width="14" height="14" fill="#e6edf3"/>
  <rect x="1150" y="40" width="14" height="14" fill="#e6edf3"/>
  <rect x="1166" y="40" width="14" height="14" fill="#e6edf3"/>
  <rect x="1086" y="56" width="14" height="14" fill="#e6edf3"/>
  <rect x="1102" y="56" width="14" height="14" fill="#e6edf3"/>
  <rect x="1118" y="56" width="14" height="14" fill="#e6edf3"/>
  <rect x="1134" y="56" width="14" height="14" fill="#e6edf3"/>
  <rect x="1150" y="56" width="14" height="14" fill="#e6edf3"/>
  <rect x="1166" y="56" width="14" height="14" fill="#e6edf3"/>
  <rect x="1182" y="56" width="14" height="14" fill="#e6edf3"/>
  <rect x="1086" y="72" width="14" height="14" fill="#d0d7de"/>
  <rect x="1102" y="72" width="14" height="14" fill="#d0d7de"/>
  <rect x="1182" y="72" width="14" height="14" fill="#d0d7de"/>
  <rect x="1198" y="72" width="14" height="14" fill="#d0d7de"/>
  <rect x="1086" y="88" width="14" height="14" fill="#8b949e"/>
  <rect x="1102" y="88" width="14" height="14" fill="#8b949e"/>
  <rect x="1182" y="88" width="14" height="14" fill="#8b949e"/>
  <rect x="1198" y="88" width="14" height="14" fill="#8b949e"/>
  <rect x="1086" y="104" width="14" height="14" fill="#8b949e"/>
  <rect x="1102" y="104" width="14" height="14" fill="#8b949e"/>
  <rect x="1182" y="104" width="14" height="14" fill="#8b949e"/>
  <rect x="1198" y="104" width="14" height="14" fill="#8b949e"/>
  <rect x="1086" y="120" width="14" height="14" fill="#636e7b"/>
  <rect x="1102" y="120" width="14" height="14" fill="#636e7b"/>
  <rect x="1182" y="120" width="14" height="14" fill="#636e7b"/>
  <rect x="1198" y="120" width="14" height="14" fill="#636e7b"/>
  <rect x="1086" y="136" width="14" height="14" fill="#545d68"/>
  <rect x="1102" y="136" width="14" height="14" fill="#545d68"/>
  <rect x="1118" y="136" width="14" height="14" fill="#545d68"/>
  <rect x="1134" y="136" width="14" height="14" fill="#545d68"/>
  <rect x="1150" y="136" width="14" height="14" fill="#545d68"/>
  <rect x="1166" y="136" width="14" height="14" fill="#545d68"/>
  <rect x="1182" y="136" width="14" height="14" fill="#545d68"/>
  <rect x="1086" y="152" width="14" height="14" fill="#444c56"/>
  <rect x="1102" y="152" width="14" height="14" fill="#444c56"/>
  <rect x="1118" y="152" width="14" height="14" fill="#444c56"/>
  <rect x="1134" y="152" width="14" height="14" fill="#444c56"/>
  <rect x="1150" y="152" width="14" height="14" fill="#444c56"/>
  <rect x="1166" y="152" width="14" height="14" fill="#444c56"/>
  <rect x="1246" y="40" width="14" height="14" fill="#e6edf3"/>
  <rect x="1262" y="40" width="14" height="14" fill="#e6edf3"/>
  <rect x="1278" y="40" width="14" height="14" fill="#e6edf3"/>
  <rect x="1294" y="40" width="14" height="14" fill="#e6edf3"/>
  <rect x="1262" y="56" width="14" height="14" fill="#e6edf3"/>
  <rect x="1278" y="56" width="14" height="14" fill="#e6edf3"/>
  <rect x="1262" y="72" width="14" height="14" fill="#d0d7de"/>
  <rect x="1278" y="72" width="14" height="14" fill="#d0d7de"/>
  <rect x="1262" y="88" width="14" height="14" fill="#8b949e"/>
  <rect x="1278" y="88" width="14" height="14" fill="#8b949e"/>
  <rect x="1262" y="104" width="14" height="14" fill="#8b949e"/>
  <rect x="1278" y="104" width="14" height="14" fill="#8b949e"/>
  <rect x="1262" y="120" width="14" height="14" fill="#636e7b"/>
  <rect x="1278" y="120" width="14" height="14" fill="#636e7b"/>
  <rect x="1262" y="136" width="14" height="14" fill="#545d68"/>
  <rect x="1278" y="136" width="14" height="14" fill="#545d68"/>
  <rect x="1246" y="152" width="14" height="14" fill="#444c56"/>
  <rect x="1262" y="152" width="14" height="14" fill="#444c56"/>
  <rect x="1278" y="152" width="14" height="14" fill="#444c56"/>
  <rect x="1294" y="152" width="14" height="14" fill="#444c56"/>
  <rect x="1358" y="40" width="14" height="14" fill="#e6edf3"/>
  <rect x="1374" y="40" width="14" height="14" fill="#e6edf3"/>
  <rect x="1390" y="40" width="14" height="14" fill="#e6edf3"/>
  <rect x="1406" y="40" width="14" height="14" fill="#e6edf3"/>
  <rect x="1422" y="40" width="14" height="14" fill="#e6edf3"/>
  <rect x="1438" y="40" width="14" height="14" fill="#e6edf3"/>
  <rect x="1342" y="56" width="14" height="14" fill="#e6edf3"/>
  <rect x="1358" y="56" width="14" height="14" fill="#e6edf3"/>
  <rect x="1374" y="56" width="14" height="14" fill="#e6edf3"/>
  <rect x="1390" y="56" width="14" height="14" fill="#e6edf3"/>
  <rect x="1406" y="56" width="14" height="14" fill="#e6edf3"/>
  <rect x="1422" y="56" width="14" height="14" fill="#e6edf3"/>
  <rect x="1438" y="56" width="14" height="14" fill="#e6edf3"/>
  <rect x="1454" y="56" width="14" height="14" fill="#e6edf3"/>
  <rect x="1342" y="72" width="14" height="14" fill="#d0d7de"/>
  <rect x="1358" y="72" width="14" height="14" fill="#d0d7de"/>
  <rect x="1438" y="72" width="14" height="14" fill="#d0d7de"/>
  <rect x="1454" y="72" width="14" height="14" fill="#d0d7de"/>
  <rect x="1342" y="88" width="14" height="14" fill="#8b949e"/>
  <rect x="1358" y="88" width="14" height="14" fill="#8b949e"/>
  <rect x="1438" y="88" width="14" height="14" fill="#8b949e"/>
  <rect x="1454" y="88" width="14" height="14" fill="#8b949e"/>
  <rect x="1342" y="104" width="14" height="14" fill="#8b949e"/>
  <rect x="1358" y="104" width="14" height="14" fill="#8b949e"/>
  <rect x="1438" y="104" width="14" height="14" fill="#8b949e"/>
  <rect x="1454" y="104" width="14" height="14" fill="#8b949e"/>
  <rect x="1342" y="120" width="14" height="14" fill="#636e7b"/>
  <rect x="1358" y="120" width="14" height="14" fill="#636e7b"/>
  <rect x="1438" y="120" width="14" height="14" fill="#636e7b"/>
  <rect x="1454" y="120" width="14" height="14" fill="#636e7b"/>
  <rect x="1342" y="136" width="14" height="14" fill="#545d68"/>
  <rect x="1358" y="136" width="14" height="14" fill="#545d68"/>
  <rect x="1374" y="136" width="14" height="14" fill="#545d68"/>
  <rect x="1390" y="136" width="14" height="14" fill="#545d68"/>
  <rect x="1406" y="136" width="14" height="14" fill="#545d68"/>
  <rect x="1422" y="136" width="14" height="14" fill="#545d68"/>
  <rect x="1438" y="136" width="14" height="14" fill="#545d68"/>
  <rect x="1454" y="136" width="14" height="14" fill="#545d68"/>
  <rect x="1358" y="152" width="14" height="14" fill="#444c56"/>
  <rect x="1374" y="152" width="14" height="14" fill="#444c56"/>
  <rect x="1390" y="152" width="14" height="14" fill="#444c56"/>
  <rect x="1406" y="152" width="14" height="14" fill="#444c56"/>
  <rect x="1422" y="152" width="14" height="14" fill="#444c56"/>
  <rect x="1438" y="152" width="14" height="14" fill="#444c56"/>
</svg>